# AST/ASF file generated using VICON BodyLanguage
# -----------------------------------------------
:version 1.10
:name VICON
:units
  mass 1.0
  length 0.45
  angle deg
:documentation
   .ast/.asf automatically generated from VICON data using
   VICON BodyBuilder and BodyLanguage model FoxedUp or BRILLIANT.MOD
:root
   order TX TY TZ RX RY RZ
   axis XYZ
   position 0 0 0  
   orientation 0 0 0 
:bonedata
  begin
     id 1 
     name lhipjoint
     direction 0.575328 -0.747301 0.332475 
     length 2.40933 
     axis 0 0 0  XYZ
  end
  begin
     id 2 
     name lfemur
     direction 0.34202 -0.939693 0  
     length 7.31453  
     axis 0 0 20  XYZ
    dof rx ry rz
    limits (-160.0 20.0)
           (-70.0 70.0)
           (-60.0 70.0)
  end
  begin
     id 3 
     name ltibia
     direction 0.34202 -0.939693 0   
     length 7.82185   
     axis 0 0 20   XYZ
    dof rx
    limits (-10.0 170.0)
  end
  begin
     id 4 
     name lfoot
     direction 0.0795993 -0.218697 0.972541   
     length 2.19173   
     axis -90 7.62852e-016 20   XYZ
    dof rx rz
    limits (-45.0 90.0)
           (-70.0 20.0)
  end
  begin
     id 5 
     name ltoes
     direction 1.53537e-011 -4.21894e-011 1   
     length 1.10023   
     axis -90 7.62852e-016 20   XYZ
    dof rx
    limits (-90.0 20.0)
  end
  begin
     id 6 
     name rhipjoint
     direction -0.513884 -0.783789 0.348708   
     length 2.29716  
     axis 0 0 0  XYZ 
  end
  begin
     id 7 
     name rfemur
     direction -0.34202 -0.939693 0   
     length 7.59573   
     axis 0 0 -20   XYZ
    dof rx ry rz
    limits (-160.0 20.0)
           (-70.0 70.0)
           (-70.0 60.0)
  end
  begin
     id 8 
     name rtibia
     direction -0.34202 -0.939693 0   
     length 7.66402   
     axis 0 0 -20   XYZ
    dof rx
    limits (-10.0 170.0)
 end
 begin
     id 9 
     name rfoot
     direction -0.137793 -0.378584 0.915253   
     length 2.27056  
     axis -90 -7.62852e-016 -20   XYZ
    dof rx rz
    limits (-45.0 90.0)
           (-20.0 70.0)
  end
  begin
     id 10 
     name rtoes
     direction -1.53493e-011 -4.22159e-011 1   
     length 1.11766   
     axis -90 -7.62852e-016 -20   XYZ
    dof rx
    limits (-90.0 20.0)
  end
  begin
     id 11 
     name lowerback
     direction -0.00732775 0.998356 -0.05685   
     length 2.16513   
     axis 0 0 0   XYZ
    dof rx ry rz
    limits (-20.0 45.0)
           (-30.0 30.0)
           (-30.0 30.0)
  end
  begin
     id 12 
     name upperback
     direction 0.0218081 0.999627 -0.0164647   
     length 2.16755   
     axis 0 0 0   XYZ
    dof rx ry rz
    limits (-20.0 45.0)
           (-30.0 30.0)
           (-30.0 30.0)
  end
  begin
     id 13 
     name thorax
     direction 0.02365 0.999661 0.0108914   
     length 2.16932   
     axis 0 0 0   XYZ
    dof rx ry rz
    limits (-20.0 45.0)
           (-30.0 30.0)
           (-30.0 30.0)
  end
  begin
     id 14 
     name lowerneck
     direction -0.0523929 0.978385 0.200044   
     length 1.63877   
     axis 0 0 0   XYZ
    dof rx ry rz
    limits (-20.0 45.0)
           (-30.0 30.0)
           (-30.0 30.0)
  end
  begin
     id 15 
     name upperneck
     direction 0.0448674 0.981321 -0.187074   
     length 1.69014   
     axis 0 0 0   XYZ
    dof rx ry rz
    limits (-20.0 45.0)
           (-30.0 30.0)
           (-30.0 30.0)
  end
  begin
     id 16
     name head
     direction 0.0199089 0.996118 -0.0857429  
     length 1.70094  
     axis 0 0 0   XYZ
    dof rx ry rz
    limits (-20.0 45.0)
           (-30.0 30.0)
           (-30.0 30.0)
  end
  begin
     id 17 
     name lclavicle
     direction 0.940366 0.30191 -0.156722  
     length 3.37521  
     axis 0 0 0   XYZ
    dof ry rz
    limits (-20.0 10.0)
           (0.0 20.0)
  end
  begin
     id 18 
     name lhumerus
     direction 1 -4.4897e-011 -1.7911e-027   
     length 5.25287   
     axis 180 -30 -90   XYZ
    dof rx ry rz
    limits (-60.0 90.0)
           (-90.0 90.0)
           (-90.0 90.0)
  end
  begin
     id 19
     name lradius
     direction 1 -4.48951e-011 1.04424e-027   
     length 3.51014   
     axis 180 -30 -90   XYZ
    dof rx
    limits (-10.0 170.0)
  end
  begin
     id 20
     name lwrist
     direction 1 -4.48997e-011 -9.5942e-028   
     length 1.75507   
     axis 8.48502e-016 90 90   XYZ
    dof ry
    limits (-180.0 0.0)
 end
  begin
     id 21 
     name lhand
     direction 1 -4.48831e-011 -1.90777e-027   
     length 0.706179   
     axis 1.22306e-015 90 90   XYZ
    dof rx rz
    limits (-90.0 90.0)
           (-45.0 45.0)
  end
  begin
     id 22 
     name lfingers
     direction 1 -4.49108e-011 -3.85244e-027   
     length 0.569339   
     axis 2.44611e-015 90 90   XYZ
    dof rx
    limits (0.0 90.0)
  end
  begin
     id 23
     name lthumb
     direction 0.707107 -6.34953e-011 0.707107   
     length 0.817461   
     axis -90 45 -1.62303e-014   XYZ
    dof rx rz
    limits (-45.0 45.0)
           (-45.0 45.0)
  end
  begin
     id 24 
     name rclavicle
     direction -0.905329 0.382405 -0.184787   
     length 3.30787  
     axis 0 0 0   XYZ 
    dof ry rz
    limits (-10.0 20.0)
           (-20.0 0.0)
  end
  begin
     id 25 
     name rhumerus
     direction -1 -4.48953e-011 -9.15316e-029  
     length 5.28721   
     axis 180 30 90   XYZ
    dof rx ry rz
    limits (-90.0 60.0)
           (-90.0 90.0)
           (-90.0 90.0)
  end
  begin
     id 26 
     name rradius
     direction -1 -4.48987e-011 9.37824e-028   
     length 3.50544   
     axis 180 30 90   XYZ
    dof rx
    limits (-10.0 170.0)
  end
  begin
     id 27 
     name rwrist
     direction -1 -4.48967e-011 -9.58414e-028   
     length 1.75272   
     axis 8.48502e-016 -90 -90   XYZ
    dof ry
    limits (-180.0 0.0)
  end
  begin
     id 28
     name rhand
     direction -1 -4.48904e-011 -1.91266e-027   
     length 0.884996   
     axis 1.22306e-015 -90 -90   XYZ
    dof rx rz
    limits (-90.0 90.0)
           (-45.0 45.0)
  end
  begin
     id 29
     name rfingers
     direction -1 -4.4909e-011 -3.85015e-027   
     length 0.713507   
     axis 2.44611e-015 -90 -90   XYZ
    dof rx
    limits (0.0 90.0)
  end
  begin
     id 30
     name rthumb
     direction -0.707107 -6.34853e-011 0.707107   
     length 1.02446   
     axis -90 -45 1.62303e-014   XYZ
    dof rx rz
    limits (-45.0 45.0)
           (-45.0 45.0)
  end
:hierarchy
  begin
    root lhipjoint rhipjoint lowerback
    lhipjoint lfemur
    lfemur ltibia
    ltibia lfoot
    lfoot ltoes
    rhipjoint rfemur
    rfemur rtibia
    rtibia rfoot
    rfoot rtoes
    lowerback upperback
    upperback thorax
    thorax lowerneck lclavicle rclavicle
    lowerneck upperneck
    upperneck head
    lclavicle lhumerus
    lhumerus lradius
    lradius lwrist
    lwrist lhand lthumb
    lhand lfingers
    rclavicle rhumerus
    rhumerus rradius
    rradius rwrist
    rwrist rhand rthumb
    rhand rfingers
  end

#!OML:ASF F:\twosubjects\two\Thursday\Session 1\justin.ASF
:FULLY-SPECIFIED
:DEGREES
96
root 8.03648 18.2098 2.25477 -168.275 -17.7259 -182.136
lowerback 1.53223 1.58244 -6.01147
upperback 2.43316 2.00891 -0.425649
thorax 1.45617 0.874951 2.91872
lowerneck -15.7272 -4.55872 -13.9966
upperneck 27.6852 -3.57492 -1.56395
head 12.0559 -3.74568 1.10776
rclavicle 5.889e-015 -1.98785e-015
rhumerus 38.6232 -10.1568 -63.3434
rradius 61.2241
rwrist 3.81891
rhand -21.5545 19.2178
rfingers 7.12502
rthumb 4.83891 -10.7069
lclavicle 5.889e-015 -1.98785e-015
lhumerus -28.9597 4.21309 79.3094
lradius 49.0784
lwrist 2.4547
lhand -7.26482 36.7804
lfingers 7.12502
lthumb 18.6161 65.9096
rfemur -22.9803 -14.3769 15.5414
rtibia 44.0065
rfoot -20.5425 -9.41394
rtoes -14.0169
lfemur -15.5789 8.04024 -22.2656
ltibia 17.9502
lfoot -11.7684 -9.00198
ltoes -1.00418
97
root 8.00152 18.1966 2.26269 -168.477 -17.7778 -182.124
lowerback 1.6771 1.58421 -5.81487
upperback 2.56175 1.9993 -0.512486
thorax 1.51711 0.866246 2.71735
lowerneck -16.1957 -4.91613 -14.215
upperneck 27.416 -3.89163 -1.51809
head 12.0774 -3.86511 1.10467
rclavicle 1.3418e-015 1.51076e-014
rhumerus 38.6741 -10.2705 -63.3433
rradius 61.0908
rwrist 3.22153
rhand -21.5904 19.521
rfingers 7.12502
rthumb 4.80424 -10.4045
lclavicle 1.3418e-015 1.51076e-014
lhumerus -28.5423 4.41994 79.0786
lradius 48.6843
lwrist 2.21034
lhand -7.36851 37.0511
lfingers 7.12502
lthumb 18.5164 66.1898
rfemur -22.8493 -14.4899 15.3846
rtibia 44.1122
rfoot -20.7147 -9.80582
rtoes -12.2242
lfemur -15.4953 7.94745 -22.3291
ltibia 18.2569
lfoot -11.8849 -8.96416
ltoes -1.20143
98
root 7.9695 18.19 2.2677 -168.597 -17.8965 -181.854
lowerback 1.72981 1.22261 -5.59708
upperback 2.32892 1.52111 -0.22263
thorax 1.28753 0.646964 2.8952
lowerneck -15.9398 -4.83908 -15.2317
upperneck 27.053 -3.62659 -1.29772
head 11.9067 -3.81304 1.39812
rclavicle -1.28489e-013 1.04362e-015
rhumerus 38.7919 -9.26152 -63.5309
rradius 60.8826
rwrist 3.26275
rhand -21.451 19.647
rfingers 7.12502
rthumb 4.93892 -10.2754
lclavicle -1.28489e-013 1.04362e-015
lhumerus -29.0915 5.78935 78.7885
lradius 48.2532
lwrist 1.89768
lhand -7.06999 37.1885
lfingers 7.12502
lthumb 18.8035 66.2997
rfemur -22.8837 -14.6009 15.6152
rtibia 44.1207
rfoot -20.8602 -10.268
rtoes -11.6694
lfemur -15.6104 7.75523 -22.1165
ltibia 18.5835
lfoot -12.0211 -8.81836
ltoes -2.0236
99
root 7.94123 18.1854 2.27117 -168.492 -17.9806 -181.699
lowerback 1.5449 1.16542 -5.6125
upperback 1.7321 1.46167 -0.148483
thorax 0.779495 0.653445 2.97794
lowerneck -14.1968 -4.81108 -15.3108
upperneck 26.4303 -3.96564 -1.39367
head 11.3443 -3.96879 1.37147
rclavicle 5.54361e-014 -1.60022e-014
rhumerus 37.8448 -8.91622 -63.6304
rradius 60.6525
rwrist 3.58043
rhand -21.6044 19.6404
rfingers 7.12502
rthumb 4.79081 -10.2854
lclavicle 5.54361e-014 -1.60022e-014
lhumerus -30.1598 5.54799 78.4815
lradius 47.8913
lwrist 2.06894
lhand -6.42441 37.0146
lfingers 7.12502
lthumb 19.4243 66.0644
rfemur -23.0629 -14.5606 15.7577
rtibia 44.0585
rfoot -21.3233 -10.5977
rtoes -12.5262
lfemur -15.9038 7.4843 -22.0438
ltibia 18.8245
lfoot -12.0862 -8.59789
ltoes -2.38876
100
root 7.91375 18.1831 2.27307 -168.513 -17.992 -181.755
lowerback 1.4023 1.01748 -5.8511
upperback 1.72177 1.27429 0.00129137
thorax 0.858788 0.555795 3.27123
lowerneck -14.2131 -5.02735 -15.8948
upperneck 26.0451 -4.12054 -1.35699
head 11.2386 -4.06205 1.45682
rclavicle -1.90212e-014 2.11706e-014
rhumerus 38.1145 -8.60157 -63.8839
rradius 60.4297
rwrist 3.79865
rhand -21.674 19.6782
rfingers 7.12502
rthumb 4.72353 -10.2492
lclavicle -1.90212e-014 2.11706e-014
lhumerus -30.3923 5.86917 78.3948
lradius 47.5682
lwrist 2.22495
lhand -6.52996 36.8834
lfingers 7.12502
lthumb 19.3228 65.9434
rfemur -22.9714 -14.4265 15.5974
rtibia 43.9
rfoot -22.3082 -11.0472
rtoes -13.3092
lfemur -15.9376 7.36444 -22.1914
ltibia 19.0309
lfoot -12.2653 -8.4256
ltoes -2.21265
101
root 7.88205 18.1794 2.26955 -168.902 -18.0502 -181.817
lowerback 1.43636 1.15671 -5.6435
upperback 2.06248 1.456 -0.256448
thorax 1.18336 0.627462 2.89015
lowerneck -14.5744 -5.54697 -16.0417
upperneck 25.8416 -4.7808 -0.92875
head 11.2978 -4.27509 1.53601
rclavicle 1.64494e-014 -1.42131e-014
rhumerus 38.3127 -9.48448 -64.5526
rradius 60.3368
rwrist 4.24288
rhand -21.6727 19.6684
rfingers 7.12502
rthumb 4.7248 -10.2589
lclavicle 1.64494e-014 -1.42131e-014
lhumerus -29.7617 5.42412 78.1637
lradius 46.9363
lwrist 2.16439
lhand -7.36357 36.9001
lfingers 7.12502
lthumb 18.5211 66.0384
rfemur -22.3443 -14.4488 15.2802
rtibia 43.6427
rfoot -23.1423 -11.2
rtoes -12.6638
lfemur -15.507 7.46459 -22.3159
ltibia 19.1816
lfoot -12.4882 -8.53936
ltoes -1.1312
